<svg width="16" height="16" viewBox="0 0 16 16" fill="none" xmlns="http://www.w3.org/2000/svg">
<path fill-rule="evenodd" clip-rule="evenodd" d="M2.10658 7.99996C3.77186 10.7536 5.74186 12 8 12C10.2581 12 12.2281 10.7536 13.8934 7.99996C12.2281 5.24628 10.2581 3.99996 8 3.99996C5.74186 3.99996 3.77186 5.24628 2.10658 7.99996ZM0.754517 7.66919C2.60481 4.43135 5.01333 2.66663 8 2.66663C10.9867 2.66663 13.3952 4.43135 15.2455 7.66919C15.3626 7.87415 15.3626 8.12577 15.2455 8.33073C13.3952 11.5686 10.9867 13.3333 8 13.3333C5.01333 13.3333 2.60481 11.5686 0.754517 8.33073C0.63739 8.12577 0.63739 7.87415 0.754517 7.66919ZM8 7.33329C7.63181 7.33329 7.33334 7.63177 7.33334 7.99996C7.33334 8.36815 7.63181 8.66663 8 8.66663C8.36819 8.66663 8.66667 8.36815 8.66667 7.99996C8.66667 7.63177 8.36819 7.33329 8 7.33329ZM6 7.99996C6 6.89539 6.89543 5.99996 8 5.99996C9.10457 5.99996 10 6.89539 10 7.99996C10 9.10453 9.10457 9.99996 8 9.99996C6.89543 9.99996 6 9.10453 6 7.99996Z" fill="#141517"/>
</svg>
