<svg width="16" height="16" viewBox="0 0 16 16" fill="none" xmlns="http://www.w3.org/2000/svg">
<path fill-rule="evenodd" clip-rule="evenodd" d="M8 2.66671C7.46957 2.66671 6.96086 2.87742 6.58579 3.25249C6.21072 3.62757 6 4.13627 6 4.66671V6.66671H10V4.66671C10 4.13627 9.78929 3.62757 9.41422 3.25249C9.03915 2.87742 8.53044 2.66671 8 2.66671ZM11.3333 6.66671V4.66671C11.3333 3.78265 10.9821 2.93481 10.357 2.30968C9.73191 1.68456 8.88406 1.33337 8 1.33337C7.11595 1.33337 6.2681 1.68456 5.64298 2.30968C5.01786 2.93481 4.66667 3.78265 4.66667 4.66671V6.66671C3.5621 6.66671 2.66667 7.56214 2.66667 8.66671V12.6667C2.66667 13.7713 3.5621 14.6667 4.66667 14.6667H11.3333C12.4379 14.6667 13.3333 13.7713 13.3333 12.6667V8.66671C13.3333 7.56214 12.4379 6.66671 11.3333 6.66671ZM4.66667 8.00004C4.29848 8.00004 4.00001 8.29852 4.00001 8.66671V12.6667C4.00001 13.0349 4.29848 13.3334 4.66667 13.3334H11.3333C11.7015 13.3334 12 13.0349 12 12.6667V8.66671C12 8.29852 11.7015 8.00004 11.3333 8.00004H4.66667ZM6.66667 10.6667C6.66667 9.93033 7.26363 9.33337 8 9.33337C8.73638 9.33337 9.33334 9.93033 9.33334 10.6667C9.33334 11.4031 8.73638 12 8 12C7.26363 12 6.66667 11.4031 6.66667 10.6667Z" fill="#141517"/>
</svg>
